<svg width="28" height="28" viewBox="0 0 28 28" fill="none" xmlns="http://www.w3.org/2000/svg">
<path d="M25.4404 11.7151H24.5007V11.6666H14.0007V16.3333H20.5941C19.6322 19.0499 17.0474 21 14.0007 21C10.1349 21 7.00065 17.8657 7.00065 14C7.00065 10.1342 10.1349 6.99998 14.0007 6.99998C15.7851 6.99998 17.4085 7.67315 18.6446 8.77273L21.9445 5.47281C19.8608 3.5309 17.0737 2.33331 14.0007 2.33331C7.55773 2.33331 2.33398 7.55706 2.33398 14C2.33398 20.4429 7.55773 25.6666 14.0007 25.6666C20.4436 25.6666 25.6673 20.4429 25.6673 14C25.6673 13.2177 25.5868 12.4541 25.4404 11.7151Z" fill="#FFC107"/>
<path d="M3.67773 8.56973L7.51082 11.3808C8.54798 8.81298 11.0598 6.99998 13.9992 6.99998C15.7837 6.99998 17.4071 7.67315 18.6432 8.77273L21.9431 5.47281C19.8594 3.5309 17.0722 2.33331 13.9992 2.33331C9.51807 2.33331 5.6319 4.86323 3.67773 8.56973Z" fill="#FF3D00"/>
<path d="M13.9995 25.6666C17.013 25.6666 19.7512 24.5134 21.8214 22.638L18.2106 19.5825C17.0393 20.4697 15.5833 21 13.9995 21C10.965 21 8.38845 19.0651 7.41778 16.3648L3.61328 19.2961C5.54411 23.0743 9.46528 25.6666 13.9995 25.6666Z" fill="#4CAF50"/>
<path d="M25.4398 11.7151H24.5V11.6667H14V16.3334H20.5934C20.1314 17.6383 19.292 18.7635 18.2093 19.5831L18.2111 19.5819L21.8219 22.6374C21.5664 22.8696 25.6667 19.8334 25.6667 14C25.6667 13.2178 25.5862 12.4542 25.4398 11.7151Z" fill="#1976D2"/>
</svg>
