<svg width="19" height="20" viewBox="0 0 19 20" fill="none" xmlns="http://www.w3.org/2000/svg">
<path d="M9.50033 11C12.6153 11 18.8337 12.5633 18.8337 15.6667V19.1667H0.166992V15.6667C0.166992 12.5633 6.38533 11 9.50033 11ZM9.50033 0.5C10.738 0.5 11.925 0.991665 12.8002 1.86683C13.6753 2.742 14.167 3.92899 14.167 5.16667C14.167 6.40434 13.6753 7.59133 12.8002 8.4665C11.925 9.34167 10.738 9.83333 9.50033 9.83333C8.26265 9.83333 7.07566 9.34167 6.20049 8.4665C5.32532 7.59133 4.83366 6.40434 4.83366 5.16667C4.83366 3.92899 5.32532 2.742 6.20049 1.86683C7.07566 0.991665 8.26265 0.5 9.50033 0.5ZM9.50033 13.2167C6.03533 13.2167 2.38366 14.92 2.38366 15.6667V16.95H16.617V15.6667C16.617 14.92 12.9653 13.2167 9.50033 13.2167ZM9.50033 2.71667C8.85054 2.71667 8.22738 2.97479 7.76791 3.43425C7.30845 3.89372 7.05033 4.51689 7.05033 5.16667C7.05033 5.81645 7.30845 6.43961 7.76791 6.89908C8.22738 7.35854 8.85054 7.61667 9.50033 7.61667C10.1501 7.61667 10.7733 7.35854 11.2327 6.89908C11.6922 6.43961 11.9503 5.81645 11.9503 5.16667C11.9503 4.51689 11.6922 3.89372 11.2327 3.43425C10.7733 2.97479 10.1501 2.71667 9.50033 2.71667Z" fill="black"/>
</svg>
